<?xml version="1.0" encoding="utf-8"?>
<!-- Generator: Adobe Illustrator 24.3.0, SVG Export Plug-In . SVG Version: 6.00 Build 0)  -->
<svg version="1.1" id="Layer_1" xmlns="http://www.w3.org/2000/svg" xmlns:xlink="http://www.w3.org/1999/xlink" x="0px" y="0px"
	 viewBox="0 0 512 512" style="enable-background:new 0 0 512 512;" xml:space="preserve">
<g>
	<path d="M435.2,296.6v-91.8c0-82.35-55.95-151.73-131.73-172.6C295.98,13.32,277.65,0,256,0c-21.68,0-40,13.32-47.5,32.2
		C132.73,53.1,76.8,122.45,76.8,204.8v91.8l-43.7,43.7c-4.82,4.8-7.5,11.3-7.5,18.1v51.2c0,14.15,11.43,25.6,25.6,25.6h409.6
		c14.15,0,25.6-11.45,25.6-25.6v-51.2c0-6.8-2.7-13.3-7.52-18.1L435.2,296.6z M435.2,384H76.8v-15l43.67-43.7
		c4.83-4.77,7.53-11.27,7.53-18.1V204.8c0-70.57,57.4-128,128-128c70.58,0,128,57.43,128,128v102.4c0,6.82,2.67,13.32,7.5,18.1
		l43.7,43.7V384z M256,512c33.55,0,61.6-21.35,72.12-51.2H183.85C194.38,490.65,222.43,512,256,512z"/>
</g>
</svg>
